<?xml version="1.0" encoding="UTF-8"?>
<svg xmlns="http://www.w3.org/2000/svg" width="512" height="512" viewBox="0 0 512 512" fill="none">
  <defs>
    <linearGradient id="bg" x1="0" y1="0" x2="512" y2="512" gradientUnits="userSpaceOnUse">
      <stop stop-color="#22C55E"/>
      <stop offset="0.5" stop-color="#10B981"/>
      <stop offset="1" stop-color="#06B6D4"/>
    </linearGradient>
    <linearGradient id="shine" x1="80" y1="60" x2="432" y2="452" gradientUnits="userSpaceOnUse">
      <stop stop-color="#FFFFFF" stop-opacity="0.2"/>
      <stop offset="1" stop-color="#FFFFFF" stop-opacity="0"/>
    </linearGradient>
    <filter id="shadow" x="-20" y="-20" width="552" height="552" color-interpolation-filters="sRGB">
      <feDropShadow dx="0" dy="12" stdDeviation="16" flood-color="#0B1220" flood-opacity="0.3"/>
    </filter>
  </defs>
  <!-- 圆角方形背景 -->
  <g filter="url(#shadow)">
    <rect x="56" y="56" width="400" height="400" rx="88" fill="url(#bg)"/>
    <rect x="56" y="56" width="400" height="400" rx="88" fill="url(#shine)"/>
  </g>
  <!-- 聊天气泡（蒸汽） -->
  <path d="M268 128c32 0 58 24 58 54s-26 54-58 54h-28l-32 28v-28c-36-8-62-32-62-58s26-50 58-50h32z" fill="#F8FAFC" opacity="0.96"/>
  <path d="M268 128c32 0 58 24 58 54s-26 54-58 54h-28l-32 28v-28c-36-8-62-32-62-58s26-50 58-50h32z" stroke="#0F172A" stroke-opacity="0.1" stroke-width="8" fill="none" stroke-linejoin="round"/>
  <!-- 茶杯体 -->
  <path d="M164 248c0-14 12-26 28-26h132c16 0 28 12 28 26v48c0 36-28 64-64 64h-52c-36 0-64-28-64-64v-48z" fill="#F8FAFC"/>
  <path d="M164 248c0-14 12-26 28-26h132c16 0 28 12 28 26v48c0 36-28 64-64 64h-52c-36 0-64-28-64-64v-48z" stroke="#0F172A" stroke-opacity="0.12" stroke-width="8" fill="none" stroke-linejoin="round"/>
  <!-- 杯把 -->
  <path d="M332 256h22c24 0 42 18 42 42s-18 42-42 42h-22" stroke="#F8FAFC" stroke-width="20" stroke-linecap="round" fill="none"/>
  <path d="M332 256h22c24 0 42 18 42 42s-18 42-42 42h-22" stroke="#0F172A" stroke-opacity="0.1" stroke-width="8" stroke-linecap="round" fill="none"/>
  <!-- 碟子 -->
  <path d="M148 368c20 20 50 34 88 34s68-14 88-34" stroke="#F8FAFC" stroke-width="20" stroke-linecap="round" fill="none"/>
  <path d="M148 368c20 20 50 34 88 34s68-14 88-34" stroke="#0F172A" stroke-opacity="0.08" stroke-width="8" stroke-linecap="round" fill="none"/>
  <!-- 小星星 -->
  <path d="M352 148l6 16 16 6-16 6-6 16-6-16-16-6 16-6 6-16z" fill="#F8FAFC" opacity="0.9"/>
</svg>
